<?xml version="1.0" encoding="UTF-8" standalone="no"?>
<!-- Created with Inkscape (http://www.inkscape.org/) -->

<svg
   xmlns:dc="http://purl.org/dc/elements/1.1/"
   xmlns:cc="http://creativecommons.org/ns#"
   xmlns:rdf="http://www.w3.org/1999/02/22-rdf-syntax-ns#"
   xmlns:svg="http://www.w3.org/2000/svg"
   xmlns="http://www.w3.org/2000/svg"
   xmlns:sodipodi="http://sodipodi.sourceforge.net/DTD/sodipodi-0.dtd"
   xmlns:inkscape="http://www.inkscape.org/namespaces/inkscape"
   width="5.291667mm"
   height="5.291667mm"
   viewBox="0 0 5.291667 5.291667"
   version="1.1"
   id="svg8"
   sodipodi:docname="en2.svg"
   inkscape:version="0.92.2 5c3e80d, 2017-08-06">
  <defs
     id="defs2">
    <clipPath
       clipPathUnits="userSpaceOnUse"
       id="clipPath6566-9">
      <rect
         x="0"
         y="-1.2695e-06"
         width="130"
         height="130"
         id="rect6568-3"
         style="fill-opacity:0.67000002" />
    </clipPath>
  </defs>
  <sodipodi:namedview
     id="base"
     pagecolor="#ffffff"
     bordercolor="#666666"
     borderopacity="1.0"
     inkscape:pageopacity="0.0"
     inkscape:pageshadow="2"
     inkscape:zoom="1.4"
     inkscape:cx="126.34497"
     inkscape:cy="-60.100419"
     inkscape:document-units="mm"
     inkscape:current-layer="layer1"
     showgrid="false"
     inkscape:window-width="1920"
     inkscape:window-height="955"
     inkscape:window-x="0"
     inkscape:window-y="1"
     inkscape:window-maximized="1"
     fit-margin-top="0"
     fit-margin-left="0"
     fit-margin-right="0"
     fit-margin-bottom="0" />
  <metadata
     id="metadata5">
    <rdf:RDF>
      <cc:Work
         rdf:about="">
        <dc:format>image/svg+xml</dc:format>
        <dc:type
           rdf:resource="http://purl.org/dc/dcmitype/StillImage" />
        <dc:title></dc:title>
      </cc:Work>
    </rdf:RDF>
  </metadata>
  <g
     inkscape:label="Capa 1"
     inkscape:groupmode="layer"
     id="layer1"
     transform="translate(-28.685818,-25.317907)">
    <g
       transform="matrix(0.04070513,0,0,0.04070513,28.685818,25.317907)"
       clip-path="url(#clipPath6566-9)"
       id="flag"
       style="fill-rule:evenodd">
      <g
         id="g390"
         style="stroke-width:1.00000003pt">
        <g
           id="g169"
           style="fill:#bd3d44">
          <rect
             x="0"
             y="0"
             width="247"
             height="10"
             id="rect156" />
          <rect
             x="0"
             y="20"
             width="247"
             height="10"
             id="rect158" />
          <rect
             x="0"
             y="40"
             width="247"
             height="10"
             id="rect160" />
          <rect
             x="0"
             y="60"
             width="247"
             height="10"
             id="rect162" />
          <rect
             x="0"
             y="80"
             width="247"
             height="10"
             id="rect164" />
          <rect
             x="0"
             y="100"
             width="247"
             height="10"
             id="rect166" />
          <rect
             x="0"
             y="120"
             width="247"
             height="10"
             id="rect168" />
        </g>
        <g
           id="g177"
           style="fill:#ffffff">
          <rect
             x="0"
             y="10"
             width="247"
             height="10"
             id="rect157" />
          <rect
             x="0"
             y="30"
             width="247"
             height="10"
             id="rect159" />
          <rect
             x="0"
             y="50"
             width="247"
             height="10"
             id="rect161" />
          <rect
             x="0"
             y="70"
             width="247"
             height="10"
             id="rect163" />
          <rect
             x="0"
             y="90"
             width="247"
             height="10"
             id="rect165" />
          <rect
             x="0"
             y="110"
             width="247"
             height="10"
             id="rect167" />
        </g>
      </g>
      <rect
         x="0"
         y="0"
         width="98.800003"
         height="70"
         id="rect200"
         style="fill:#192f5d;stroke-width:1.00000003pt" />
      <g
         id="g274"
         style="fill:#ffffff">
        <g
           id="g218">
          <g
             id="g194">
            <polygon
               points="2.3535,3.2393 0,1.5294 -2.3535,3.2393 -1.4545,0.47261 -3.808,-1.2373 -0.89895,-1.2373 0,-4.004 0.89895,-1.2373 3.808,-1.2373 1.4545,0.47261 "
               d="M 1.3084868e-6,-4.0040002 0.89895399,-1.237304 3.8080309,-1.2373029 1.4545381,0.47260808 2.3534912,3.239305 0,1.5293919 l -2.3534933,1.7099115 0.8989552,-2.76669531 -2.353492,-1.70991339 2.9090761,1.3e-6 z"
               transform="translate(8.2333,7)"
               id="polygon207" />
            <polygon
               points="2.3535,3.2393 0,1.5294 -2.3535,3.2393 -1.4545,0.47261 -3.808,-1.2373 -0.89895,-1.2373 0,-4.004 0.89895,-1.2373 3.808,-1.2373 1.4545,0.47261 "
               d="M 1.3084868e-6,-4.0040002 0.89895399,-1.237304 3.8080309,-1.2373029 1.4545381,0.47260808 2.3534912,3.239305 0,1.5293919 l -2.3534933,1.7099115 0.8989552,-2.76669531 -2.353492,-1.70991339 2.9090761,1.3e-6 z"
               transform="translate(24.7,7)"
               id="polygon188" />
            <polygon
               points="2.3535,3.2393 0,1.5294 -2.3535,3.2393 -1.4545,0.47261 -3.808,-1.2373 -0.89895,-1.2373 0,-4.004 0.89895,-1.2373 3.808,-1.2373 1.4545,0.47261 "
               d="M 1.3084868e-6,-4.0040002 0.89895399,-1.237304 3.8080309,-1.2373029 1.4545381,0.47260808 2.3534912,3.239305 0,1.5293919 l -2.3534933,1.7099115 0.8989552,-2.76669531 -2.353492,-1.70991339 2.9090761,1.3e-6 z"
               transform="translate(41.167,7)"
               id="polygon189" />
            <polygon
               points="2.3535,3.2393 0,1.5294 -2.3535,3.2393 -1.4545,0.47261 -3.808,-1.2373 -0.89895,-1.2373 0,-4.004 0.89895,-1.2373 3.808,-1.2373 1.4545,0.47261 "
               d="M 1.3084868e-6,-4.0040002 0.89895399,-1.237304 3.8080309,-1.2373029 1.4545381,0.47260808 2.3534912,3.239305 0,1.5293919 l -2.3534933,1.7099115 0.8989552,-2.76669531 -2.353492,-1.70991339 2.9090761,1.3e-6 z"
               transform="translate(57.633,7)"
               id="polygon190" />
            <polygon
               points="2.3535,3.2393 0,1.5294 -2.3535,3.2393 -1.4545,0.47261 -3.808,-1.2373 -0.89895,-1.2373 0,-4.004 0.89895,-1.2373 3.808,-1.2373 1.4545,0.47261 "
               d="M 1.3084868e-6,-4.0040002 0.89895399,-1.237304 3.8080309,-1.2373029 1.4545381,0.47260808 2.3534912,3.239305 0,1.5293919 l -2.3534933,1.7099115 0.8989552,-2.76669531 -2.353492,-1.70991339 2.9090761,1.3e-6 z"
               transform="translate(74.1,7)"
               id="polygon191" />
            <polygon
               points="2.3535,3.2393 0,1.5294 -2.3535,3.2393 -1.4545,0.47261 -3.808,-1.2373 -0.89895,-1.2373 0,-4.004 0.89895,-1.2373 3.808,-1.2373 1.4545,0.47261 "
               d="M 1.3084868e-6,-4.0040002 0.89895399,-1.237304 3.8080309,-1.2373029 1.4545381,0.47260808 2.3534912,3.239305 0,1.5293919 l -2.3534933,1.7099115 0.8989552,-2.76669531 -2.353492,-1.70991339 2.9090761,1.3e-6 z"
               transform="translate(90.567,7)"
               id="polygon192" />
          </g>
          <g
             id="g205">
            <polygon
               points="2.3535,3.2393 0,1.5294 -2.3535,3.2393 -1.4545,0.47261 -3.808,-1.2373 -0.89895,-1.2373 0,-4.004 0.89895,-1.2373 3.808,-1.2373 1.4545,0.47261 "
               d="M 1.3084868e-6,-4.0040002 0.89895399,-1.237304 3.8080309,-1.2373029 1.4545381,0.47260808 2.3534912,3.239305 0,1.5293919 l -2.3534933,1.7099115 0.8989552,-2.76669531 -2.353492,-1.70991339 2.9090761,1.3e-6 z"
               transform="translate(16.467,14)"
               id="polygon193" />
            <polygon
               points="2.3535,3.2393 0,1.5294 -2.3535,3.2393 -1.4545,0.47261 -3.808,-1.2373 -0.89895,-1.2373 0,-4.004 0.89895,-1.2373 3.808,-1.2373 1.4545,0.47261 "
               d="M 1.3084868e-6,-4.0040002 0.89895399,-1.237304 3.8080309,-1.2373029 1.4545381,0.47260808 2.3534912,3.239305 0,1.5293919 l -2.3534933,1.7099115 0.8989552,-2.76669531 -2.353492,-1.70991339 2.9090761,1.3e-6 z"
               transform="translate(32.933,14)"
               id="polygon201" />
            <polygon
               points="2.3535,3.2393 0,1.5294 -2.3535,3.2393 -1.4545,0.47261 -3.808,-1.2373 -0.89895,-1.2373 0,-4.004 0.89895,-1.2373 3.808,-1.2373 1.4545,0.47261 "
               d="M 1.3084868e-6,-4.0040002 0.89895399,-1.237304 3.8080309,-1.2373029 1.4545381,0.47260808 2.3534912,3.239305 0,1.5293919 l -2.3534933,1.7099115 0.8989552,-2.76669531 -2.353492,-1.70991339 2.9090761,1.3e-6 z"
               transform="translate(49.4,14)"
               id="polygon202" />
            <polygon
               points="2.3535,3.2393 0,1.5294 -2.3535,3.2393 -1.4545,0.47261 -3.808,-1.2373 -0.89895,-1.2373 0,-4.004 0.89895,-1.2373 3.808,-1.2373 1.4545,0.47261 "
               d="M 1.3084868e-6,-4.0040002 0.89895399,-1.237304 3.8080309,-1.2373029 1.4545381,0.47260808 2.3534912,3.239305 0,1.5293919 l -2.3534933,1.7099115 0.8989552,-2.76669531 -2.353492,-1.70991339 2.9090761,1.3e-6 z"
               transform="translate(65.867,14)"
               id="polygon203" />
            <polygon
               points="2.3535,3.2393 0,1.5294 -2.3535,3.2393 -1.4545,0.47261 -3.808,-1.2373 -0.89895,-1.2373 0,-4.004 0.89895,-1.2373 3.808,-1.2373 1.4545,0.47261 "
               d="M 1.3084868e-6,-4.0040002 0.89895399,-1.237304 3.8080309,-1.2373029 1.4545381,0.47260808 2.3534912,3.239305 0,1.5293919 l -2.3534933,1.7099115 0.8989552,-2.76669531 -2.353492,-1.70991339 2.9090761,1.3e-6 z"
               transform="translate(82.333,14)"
               id="polygon204" />
          </g>
        </g>
        <g
           transform="translate(0,14)"
           id="g232">
          <g
             id="g233">
            <polygon
               points="2.3535,3.2393 0,1.5294 -2.3535,3.2393 -1.4545,0.47261 -3.808,-1.2373 -0.89895,-1.2373 0,-4.004 0.89895,-1.2373 3.808,-1.2373 1.4545,0.47261 "
               d="M 1.3084868e-6,-4.0040002 0.89895399,-1.237304 3.8080309,-1.2373029 1.4545381,0.47260808 2.3534912,3.239305 0,1.5293919 l -2.3534933,1.7099115 0.8989552,-2.76669531 -2.353492,-1.70991339 2.9090761,1.3e-6 z"
               transform="translate(8.2333,7)"
               id="polygon234" />
            <polygon
               points="2.3535,3.2393 0,1.5294 -2.3535,3.2393 -1.4545,0.47261 -3.808,-1.2373 -0.89895,-1.2373 0,-4.004 0.89895,-1.2373 3.808,-1.2373 1.4545,0.47261 "
               d="M 1.3084868e-6,-4.0040002 0.89895399,-1.237304 3.8080309,-1.2373029 1.4545381,0.47260808 2.3534912,3.239305 0,1.5293919 l -2.3534933,1.7099115 0.8989552,-2.76669531 -2.353492,-1.70991339 2.9090761,1.3e-6 z"
               transform="translate(24.7,7)"
               id="polygon235" />
            <polygon
               points="2.3535,3.2393 0,1.5294 -2.3535,3.2393 -1.4545,0.47261 -3.808,-1.2373 -0.89895,-1.2373 0,-4.004 0.89895,-1.2373 3.808,-1.2373 1.4545,0.47261 "
               d="M 1.3084868e-6,-4.0040002 0.89895399,-1.237304 3.8080309,-1.2373029 1.4545381,0.47260808 2.3534912,3.239305 0,1.5293919 l -2.3534933,1.7099115 0.8989552,-2.76669531 -2.353492,-1.70991339 2.9090761,1.3e-6 z"
               transform="translate(41.167,7)"
               id="polygon236" />
            <polygon
               points="2.3535,3.2393 0,1.5294 -2.3535,3.2393 -1.4545,0.47261 -3.808,-1.2373 -0.89895,-1.2373 0,-4.004 0.89895,-1.2373 3.808,-1.2373 1.4545,0.47261 "
               d="M 1.3084868e-6,-4.0040002 0.89895399,-1.237304 3.8080309,-1.2373029 1.4545381,0.47260808 2.3534912,3.239305 0,1.5293919 l -2.3534933,1.7099115 0.8989552,-2.76669531 -2.353492,-1.70991339 2.9090761,1.3e-6 z"
               transform="translate(57.633,7)"
               id="polygon237" />
            <polygon
               points="2.3535,3.2393 0,1.5294 -2.3535,3.2393 -1.4545,0.47261 -3.808,-1.2373 -0.89895,-1.2373 0,-4.004 0.89895,-1.2373 3.808,-1.2373 1.4545,0.47261 "
               d="M 1.3084868e-6,-4.0040002 0.89895399,-1.237304 3.8080309,-1.2373029 1.4545381,0.47260808 2.3534912,3.239305 0,1.5293919 l -2.3534933,1.7099115 0.8989552,-2.76669531 -2.353492,-1.70991339 2.9090761,1.3e-6 z"
               transform="translate(74.1,7)"
               id="polygon238" />
            <polygon
               points="2.3535,3.2393 0,1.5294 -2.3535,3.2393 -1.4545,0.47261 -3.808,-1.2373 -0.89895,-1.2373 0,-4.004 0.89895,-1.2373 3.808,-1.2373 1.4545,0.47261 "
               d="M 1.3084868e-6,-4.0040002 0.89895399,-1.237304 3.8080309,-1.2373029 1.4545381,0.47260808 2.3534912,3.239305 0,1.5293919 l -2.3534933,1.7099115 0.8989552,-2.76669531 -2.353492,-1.70991339 2.9090761,1.3e-6 z"
               transform="translate(90.567,7)"
               id="polygon239" />
          </g>
          <g
             id="g240">
            <polygon
               points="2.3535,3.2393 0,1.5294 -2.3535,3.2393 -1.4545,0.47261 -3.808,-1.2373 -0.89895,-1.2373 0,-4.004 0.89895,-1.2373 3.808,-1.2373 1.4545,0.47261 "
               d="M 1.3084868e-6,-4.0040002 0.89895399,-1.237304 3.8080309,-1.2373029 1.4545381,0.47260808 2.3534912,3.239305 0,1.5293919 l -2.3534933,1.7099115 0.8989552,-2.76669531 -2.353492,-1.70991339 2.9090761,1.3e-6 z"
               transform="translate(16.467,14)"
               id="polygon241" />
            <polygon
               points="2.3535,3.2393 0,1.5294 -2.3535,3.2393 -1.4545,0.47261 -3.808,-1.2373 -0.89895,-1.2373 0,-4.004 0.89895,-1.2373 3.808,-1.2373 1.4545,0.47261 "
               d="M 1.3084868e-6,-4.0040002 0.89895399,-1.237304 3.8080309,-1.2373029 1.4545381,0.47260808 2.3534912,3.239305 0,1.5293919 l -2.3534933,1.7099115 0.8989552,-2.76669531 -2.353492,-1.70991339 2.9090761,1.3e-6 z"
               transform="translate(32.933,14)"
               id="polygon242" />
            <polygon
               points="2.3535,3.2393 0,1.5294 -2.3535,3.2393 -1.4545,0.47261 -3.808,-1.2373 -0.89895,-1.2373 0,-4.004 0.89895,-1.2373 3.808,-1.2373 1.4545,0.47261 "
               d="M 1.3084868e-6,-4.0040002 0.89895399,-1.237304 3.8080309,-1.2373029 1.4545381,0.47260808 2.3534912,3.239305 0,1.5293919 l -2.3534933,1.7099115 0.8989552,-2.76669531 -2.353492,-1.70991339 2.9090761,1.3e-6 z"
               transform="translate(49.4,14)"
               id="polygon243" />
            <polygon
               points="2.3535,3.2393 0,1.5294 -2.3535,3.2393 -1.4545,0.47261 -3.808,-1.2373 -0.89895,-1.2373 0,-4.004 0.89895,-1.2373 3.808,-1.2373 1.4545,0.47261 "
               d="M 1.3084868e-6,-4.0040002 0.89895399,-1.237304 3.8080309,-1.2373029 1.4545381,0.47260808 2.3534912,3.239305 0,1.5293919 l -2.3534933,1.7099115 0.8989552,-2.76669531 -2.353492,-1.70991339 2.9090761,1.3e-6 z"
               transform="translate(65.867,14)"
               id="polygon244" />
            <polygon
               points="2.3535,3.2393 0,1.5294 -2.3535,3.2393 -1.4545,0.47261 -3.808,-1.2373 -0.89895,-1.2373 0,-4.004 0.89895,-1.2373 3.808,-1.2373 1.4545,0.47261 "
               d="M 1.3084868e-6,-4.0040002 0.89895399,-1.237304 3.8080309,-1.2373029 1.4545381,0.47260808 2.3534912,3.239305 0,1.5293919 l -2.3534933,1.7099115 0.8989552,-2.76669531 -2.353492,-1.70991339 2.9090761,1.3e-6 z"
               transform="translate(82.333,14)"
               id="polygon245" />
          </g>
        </g>
        <g
           transform="translate(0,28)"
           id="g246">
          <g
             id="g247">
            <polygon
               points="2.3535,3.2393 0,1.5294 -2.3535,3.2393 -1.4545,0.47261 -3.808,-1.2373 -0.89895,-1.2373 0,-4.004 0.89895,-1.2373 3.808,-1.2373 1.4545,0.47261 "
               d="M 1.3084868e-6,-4.0040002 0.89895399,-1.237304 3.8080309,-1.2373029 1.4545381,0.47260808 2.3534912,3.239305 0,1.5293919 l -2.3534933,1.7099115 0.8989552,-2.76669531 -2.353492,-1.70991339 2.9090761,1.3e-6 z"
               transform="translate(8.2333,7)"
               id="polygon248" />
            <polygon
               points="2.3535,3.2393 0,1.5294 -2.3535,3.2393 -1.4545,0.47261 -3.808,-1.2373 -0.89895,-1.2373 0,-4.004 0.89895,-1.2373 3.808,-1.2373 1.4545,0.47261 "
               d="M 1.3084868e-6,-4.0040002 0.89895399,-1.237304 3.8080309,-1.2373029 1.4545381,0.47260808 2.3534912,3.239305 0,1.5293919 l -2.3534933,1.7099115 0.8989552,-2.76669531 -2.353492,-1.70991339 2.9090761,1.3e-6 z"
               transform="translate(24.7,7)"
               id="polygon249" />
            <polygon
               points="2.3535,3.2393 0,1.5294 -2.3535,3.2393 -1.4545,0.47261 -3.808,-1.2373 -0.89895,-1.2373 0,-4.004 0.89895,-1.2373 3.808,-1.2373 1.4545,0.47261 "
               d="M 1.3084868e-6,-4.0040002 0.89895399,-1.237304 3.8080309,-1.2373029 1.4545381,0.47260808 2.3534912,3.239305 0,1.5293919 l -2.3534933,1.7099115 0.8989552,-2.76669531 -2.353492,-1.70991339 2.9090761,1.3e-6 z"
               transform="translate(41.167,7)"
               id="polygon250" />
            <polygon
               points="2.3535,3.2393 0,1.5294 -2.3535,3.2393 -1.4545,0.47261 -3.808,-1.2373 -0.89895,-1.2373 0,-4.004 0.89895,-1.2373 3.808,-1.2373 1.4545,0.47261 "
               d="M 1.3084868e-6,-4.0040002 0.89895399,-1.237304 3.8080309,-1.2373029 1.4545381,0.47260808 2.3534912,3.239305 0,1.5293919 l -2.3534933,1.7099115 0.8989552,-2.76669531 -2.353492,-1.70991339 2.9090761,1.3e-6 z"
               transform="translate(57.633,7)"
               id="polygon251" />
            <polygon
               points="2.3535,3.2393 0,1.5294 -2.3535,3.2393 -1.4545,0.47261 -3.808,-1.2373 -0.89895,-1.2373 0,-4.004 0.89895,-1.2373 3.808,-1.2373 1.4545,0.47261 "
               d="M 1.3084868e-6,-4.0040002 0.89895399,-1.237304 3.8080309,-1.2373029 1.4545381,0.47260808 2.3534912,3.239305 0,1.5293919 l -2.3534933,1.7099115 0.8989552,-2.76669531 -2.353492,-1.70991339 2.9090761,1.3e-6 z"
               transform="translate(74.1,7)"
               id="polygon252" />
            <polygon
               points="2.3535,3.2393 0,1.5294 -2.3535,3.2393 -1.4545,0.47261 -3.808,-1.2373 -0.89895,-1.2373 0,-4.004 0.89895,-1.2373 3.808,-1.2373 1.4545,0.47261 "
               d="M 1.3084868e-6,-4.0040002 0.89895399,-1.237304 3.8080309,-1.2373029 1.4545381,0.47260808 2.3534912,3.239305 0,1.5293919 l -2.3534933,1.7099115 0.8989552,-2.76669531 -2.353492,-1.70991339 2.9090761,1.3e-6 z"
               transform="translate(90.567,7)"
               id="polygon253" />
          </g>
          <g
             id="g254">
            <polygon
               points="2.3535,3.2393 0,1.5294 -2.3535,3.2393 -1.4545,0.47261 -3.808,-1.2373 -0.89895,-1.2373 0,-4.004 0.89895,-1.2373 3.808,-1.2373 1.4545,0.47261 "
               d="M 1.3084868e-6,-4.0040002 0.89895399,-1.237304 3.8080309,-1.2373029 1.4545381,0.47260808 2.3534912,3.239305 0,1.5293919 l -2.3534933,1.7099115 0.8989552,-2.76669531 -2.353492,-1.70991339 2.9090761,1.3e-6 z"
               transform="translate(16.467,14)"
               id="polygon255" />
            <polygon
               points="2.3535,3.2393 0,1.5294 -2.3535,3.2393 -1.4545,0.47261 -3.808,-1.2373 -0.89895,-1.2373 0,-4.004 0.89895,-1.2373 3.808,-1.2373 1.4545,0.47261 "
               d="M 1.3084868e-6,-4.0040002 0.89895399,-1.237304 3.8080309,-1.2373029 1.4545381,0.47260808 2.3534912,3.239305 0,1.5293919 l -2.3534933,1.7099115 0.8989552,-2.76669531 -2.353492,-1.70991339 2.9090761,1.3e-6 z"
               transform="translate(32.933,14)"
               id="polygon256" />
            <polygon
               points="2.3535,3.2393 0,1.5294 -2.3535,3.2393 -1.4545,0.47261 -3.808,-1.2373 -0.89895,-1.2373 0,-4.004 0.89895,-1.2373 3.808,-1.2373 1.4545,0.47261 "
               d="M 1.3084868e-6,-4.0040002 0.89895399,-1.237304 3.8080309,-1.2373029 1.4545381,0.47260808 2.3534912,3.239305 0,1.5293919 l -2.3534933,1.7099115 0.8989552,-2.76669531 -2.353492,-1.70991339 2.9090761,1.3e-6 z"
               transform="translate(49.4,14)"
               id="polygon257" />
            <polygon
               points="2.3535,3.2393 0,1.5294 -2.3535,3.2393 -1.4545,0.47261 -3.808,-1.2373 -0.89895,-1.2373 0,-4.004 0.89895,-1.2373 3.808,-1.2373 1.4545,0.47261 "
               d="M 1.3084868e-6,-4.0040002 0.89895399,-1.237304 3.8080309,-1.2373029 1.4545381,0.47260808 2.3534912,3.239305 0,1.5293919 l -2.3534933,1.7099115 0.8989552,-2.76669531 -2.353492,-1.70991339 2.9090761,1.3e-6 z"
               transform="translate(65.867,14)"
               id="polygon258" />
            <polygon
               points="2.3535,3.2393 0,1.5294 -2.3535,3.2393 -1.4545,0.47261 -3.808,-1.2373 -0.89895,-1.2373 0,-4.004 0.89895,-1.2373 3.808,-1.2373 1.4545,0.47261 "
               d="M 1.3084868e-6,-4.0040002 0.89895399,-1.237304 3.8080309,-1.2373029 1.4545381,0.47260808 2.3534912,3.239305 0,1.5293919 l -2.3534933,1.7099115 0.8989552,-2.76669531 -2.353492,-1.70991339 2.9090761,1.3e-6 z"
               transform="translate(82.333,14)"
               id="polygon259" />
          </g>
        </g>
        <g
           transform="translate(0,42)"
           id="g260">
          <g
             id="g261">
            <polygon
               points="2.3535,3.2393 0,1.5294 -2.3535,3.2393 -1.4545,0.47261 -3.808,-1.2373 -0.89895,-1.2373 0,-4.004 0.89895,-1.2373 3.808,-1.2373 1.4545,0.47261 "
               d="M 1.3084868e-6,-4.0040002 0.89895399,-1.237304 3.8080309,-1.2373029 1.4545381,0.47260808 2.3534912,3.239305 0,1.5293919 l -2.3534933,1.7099115 0.8989552,-2.76669531 -2.353492,-1.70991339 2.9090761,1.3e-6 z"
               transform="translate(8.2333,7)"
               id="polygon262" />
            <polygon
               points="2.3535,3.2393 0,1.5294 -2.3535,3.2393 -1.4545,0.47261 -3.808,-1.2373 -0.89895,-1.2373 0,-4.004 0.89895,-1.2373 3.808,-1.2373 1.4545,0.47261 "
               d="M 1.3084868e-6,-4.0040002 0.89895399,-1.237304 3.8080309,-1.2373029 1.4545381,0.47260808 2.3534912,3.239305 0,1.5293919 l -2.3534933,1.7099115 0.8989552,-2.76669531 -2.353492,-1.70991339 2.9090761,1.3e-6 z"
               transform="translate(24.7,7)"
               id="polygon263" />
            <polygon
               points="2.3535,3.2393 0,1.5294 -2.3535,3.2393 -1.4545,0.47261 -3.808,-1.2373 -0.89895,-1.2373 0,-4.004 0.89895,-1.2373 3.808,-1.2373 1.4545,0.47261 "
               d="M 1.3084868e-6,-4.0040002 0.89895399,-1.237304 3.8080309,-1.2373029 1.4545381,0.47260808 2.3534912,3.239305 0,1.5293919 l -2.3534933,1.7099115 0.8989552,-2.76669531 -2.353492,-1.70991339 2.9090761,1.3e-6 z"
               transform="translate(41.167,7)"
               id="polygon264" />
            <polygon
               points="2.3535,3.2393 0,1.5294 -2.3535,3.2393 -1.4545,0.47261 -3.808,-1.2373 -0.89895,-1.2373 0,-4.004 0.89895,-1.2373 3.808,-1.2373 1.4545,0.47261 "
               d="M 1.3084868e-6,-4.0040002 0.89895399,-1.237304 3.8080309,-1.2373029 1.4545381,0.47260808 2.3534912,3.239305 0,1.5293919 l -2.3534933,1.7099115 0.8989552,-2.76669531 -2.353492,-1.70991339 2.9090761,1.3e-6 z"
               transform="translate(57.633,7)"
               id="polygon265" />
            <polygon
               points="2.3535,3.2393 0,1.5294 -2.3535,3.2393 -1.4545,0.47261 -3.808,-1.2373 -0.89895,-1.2373 0,-4.004 0.89895,-1.2373 3.808,-1.2373 1.4545,0.47261 "
               d="M 1.3084868e-6,-4.0040002 0.89895399,-1.237304 3.8080309,-1.2373029 1.4545381,0.47260808 2.3534912,3.239305 0,1.5293919 l -2.3534933,1.7099115 0.8989552,-2.76669531 -2.353492,-1.70991339 2.9090761,1.3e-6 z"
               transform="translate(74.1,7)"
               id="polygon266" />
            <polygon
               points="2.3535,3.2393 0,1.5294 -2.3535,3.2393 -1.4545,0.47261 -3.808,-1.2373 -0.89895,-1.2373 0,-4.004 0.89895,-1.2373 3.808,-1.2373 1.4545,0.47261 "
               d="M 1.3084868e-6,-4.0040002 0.89895399,-1.237304 3.8080309,-1.2373029 1.4545381,0.47260808 2.3534912,3.239305 0,1.5293919 l -2.3534933,1.7099115 0.8989552,-2.76669531 -2.353492,-1.70991339 2.9090761,1.3e-6 z"
               transform="translate(90.567,7)"
               id="polygon267" />
          </g>
          <g
             id="g268">
            <polygon
               points="2.3535,3.2393 0,1.5294 -2.3535,3.2393 -1.4545,0.47261 -3.808,-1.2373 -0.89895,-1.2373 0,-4.004 0.89895,-1.2373 3.808,-1.2373 1.4545,0.47261 "
               d="M 1.3084868e-6,-4.0040002 0.89895399,-1.237304 3.8080309,-1.2373029 1.4545381,0.47260808 2.3534912,3.239305 0,1.5293919 l -2.3534933,1.7099115 0.8989552,-2.76669531 -2.353492,-1.70991339 2.9090761,1.3e-6 z"
               transform="translate(16.467,14)"
               id="polygon269" />
            <polygon
               points="2.3535,3.2393 0,1.5294 -2.3535,3.2393 -1.4545,0.47261 -3.808,-1.2373 -0.89895,-1.2373 0,-4.004 0.89895,-1.2373 3.808,-1.2373 1.4545,0.47261 "
               d="M 1.3084868e-6,-4.0040002 0.89895399,-1.237304 3.8080309,-1.2373029 1.4545381,0.47260808 2.3534912,3.239305 0,1.5293919 l -2.3534933,1.7099115 0.8989552,-2.76669531 -2.353492,-1.70991339 2.9090761,1.3e-6 z"
               transform="translate(32.933,14)"
               id="polygon270" />
            <polygon
               points="2.3535,3.2393 0,1.5294 -2.3535,3.2393 -1.4545,0.47261 -3.808,-1.2373 -0.89895,-1.2373 0,-4.004 0.89895,-1.2373 3.808,-1.2373 1.4545,0.47261 "
               d="M 1.3084868e-6,-4.0040002 0.89895399,-1.237304 3.8080309,-1.2373029 1.4545381,0.47260808 2.3534912,3.239305 0,1.5293919 l -2.3534933,1.7099115 0.8989552,-2.76669531 -2.353492,-1.70991339 2.9090761,1.3e-6 z"
               transform="translate(49.4,14)"
               id="polygon271" />
            <polygon
               points="2.3535,3.2393 0,1.5294 -2.3535,3.2393 -1.4545,0.47261 -3.808,-1.2373 -0.89895,-1.2373 0,-4.004 0.89895,-1.2373 3.808,-1.2373 1.4545,0.47261 "
               d="M 1.3084868e-6,-4.0040002 0.89895399,-1.237304 3.8080309,-1.2373029 1.4545381,0.47260808 2.3534912,3.239305 0,1.5293919 l -2.3534933,1.7099115 0.8989552,-2.76669531 -2.353492,-1.70991339 2.9090761,1.3e-6 z"
               transform="translate(65.867,14)"
               id="polygon272" />
            <polygon
               points="2.3535,3.2393 0,1.5294 -2.3535,3.2393 -1.4545,0.47261 -3.808,-1.2373 -0.89895,-1.2373 0,-4.004 0.89895,-1.2373 3.808,-1.2373 1.4545,0.47261 "
               d="M 1.3084868e-6,-4.0040002 0.89895399,-1.237304 3.8080309,-1.2373029 1.4545381,0.47260808 2.3534912,3.239305 0,1.5293919 l -2.3534933,1.7099115 0.8989552,-2.76669531 -2.353492,-1.70991339 2.9090761,1.3e-6 z"
               transform="translate(82.333,14)"
               id="polygon273" />
          </g>
        </g>
        <g
           transform="translate(0,56)"
           id="g211">
          <polygon
             points="2.3535,3.2393 0,1.5294 -2.3535,3.2393 -1.4545,0.47261 -3.808,-1.2373 -0.89895,-1.2373 0,-4.004 0.89895,-1.2373 3.808,-1.2373 1.4545,0.47261 "
             d="M 1.3084868e-6,-4.0040002 0.89895399,-1.237304 3.8080309,-1.2373029 1.4545381,0.47260808 2.3534912,3.239305 0,1.5293919 l -2.3534933,1.7099115 0.8989552,-2.76669531 -2.353492,-1.70991339 2.9090761,1.3e-6 z"
             transform="translate(8.2333,7)"
             id="polygon212" />
          <polygon
             points="2.3535,3.2393 0,1.5294 -2.3535,3.2393 -1.4545,0.47261 -3.808,-1.2373 -0.89895,-1.2373 0,-4.004 0.89895,-1.2373 3.808,-1.2373 1.4545,0.47261 "
             d="M 1.3084868e-6,-4.0040002 0.89895399,-1.237304 3.8080309,-1.2373029 1.4545381,0.47260808 2.3534912,3.239305 0,1.5293919 l -2.3534933,1.7099115 0.8989552,-2.76669531 -2.353492,-1.70991339 2.9090761,1.3e-6 z"
             transform="translate(24.7,7)"
             id="polygon213" />
          <polygon
             points="2.3535,3.2393 0,1.5294 -2.3535,3.2393 -1.4545,0.47261 -3.808,-1.2373 -0.89895,-1.2373 0,-4.004 0.89895,-1.2373 3.808,-1.2373 1.4545,0.47261 "
             d="M 1.3084868e-6,-4.0040002 0.89895399,-1.237304 3.8080309,-1.2373029 1.4545381,0.47260808 2.3534912,3.239305 0,1.5293919 l -2.3534933,1.7099115 0.8989552,-2.76669531 -2.353492,-1.70991339 2.9090761,1.3e-6 z"
             transform="translate(41.167,7)"
             id="polygon214" />
          <polygon
             points="2.3535,3.2393 0,1.5294 -2.3535,3.2393 -1.4545,0.47261 -3.808,-1.2373 -0.89895,-1.2373 0,-4.004 0.89895,-1.2373 3.808,-1.2373 1.4545,0.47261 "
             d="M 1.3084868e-6,-4.0040002 0.89895399,-1.237304 3.8080309,-1.2373029 1.4545381,0.47260808 2.3534912,3.239305 0,1.5293919 l -2.3534933,1.7099115 0.8989552,-2.76669531 -2.353492,-1.70991339 2.9090761,1.3e-6 z"
             transform="translate(57.633,7)"
             id="polygon215" />
          <polygon
             points="2.3535,3.2393 0,1.5294 -2.3535,3.2393 -1.4545,0.47261 -3.808,-1.2373 -0.89895,-1.2373 0,-4.004 0.89895,-1.2373 3.808,-1.2373 1.4545,0.47261 "
             d="M 1.3084868e-6,-4.0040002 0.89895399,-1.237304 3.8080309,-1.2373029 1.4545381,0.47260808 2.3534912,3.239305 0,1.5293919 l -2.3534933,1.7099115 0.8989552,-2.76669531 -2.353492,-1.70991339 2.9090761,1.3e-6 z"
             transform="translate(74.1,7)"
             id="polygon216" />
          <polygon
             points="2.3535,3.2393 0,1.5294 -2.3535,3.2393 -1.4545,0.47261 -3.808,-1.2373 -0.89895,-1.2373 0,-4.004 0.89895,-1.2373 3.808,-1.2373 1.4545,0.47261 "
             d="M 1.3084868e-6,-4.0040002 0.89895399,-1.237304 3.8080309,-1.2373029 1.4545381,0.47260808 2.3534912,3.239305 0,1.5293919 l -2.3534933,1.7099115 0.8989552,-2.76669531 -2.353492,-1.70991339 2.9090761,1.3e-6 z"
             transform="translate(90.567,7)"
             id="polygon217" />
        </g>
      </g>
    </g>
  </g>
</svg>
