<?xml version="1.0" encoding="UTF-8" standalone="no"?>
<!-- Created with Inkscape (http://www.inkscape.org/) -->

<svg
   xmlns:dc="http://purl.org/dc/elements/1.1/"
   xmlns:cc="http://creativecommons.org/ns#"
   xmlns:rdf="http://www.w3.org/1999/02/22-rdf-syntax-ns#"
   xmlns:svg="http://www.w3.org/2000/svg"
   xmlns="http://www.w3.org/2000/svg"
   xmlns:sodipodi="http://sodipodi.sourceforge.net/DTD/sodipodi-0.dtd"
   xmlns:inkscape="http://www.inkscape.org/namespaces/inkscape"
   width="300mm"
   height="187.36142mm"
   viewBox="0 0 300 187.36142"
   version="1.1"
   id="svg8"
   inkscape:version="0.92.2 5c3e80d, 2017-08-06"
   sodipodi:docname="logo.svg">
  <defs
     id="defs2" />
  <sodipodi:namedview
     id="base"
     pagecolor="#ffffff"
     bordercolor="#666666"
     borderopacity="1.0"
     inkscape:pageopacity="0.0"
     inkscape:pageshadow="2"
     inkscape:zoom="0.49497475"
     inkscape:cx="214.54512"
     inkscape:cy="427.81578"
     inkscape:document-units="mm"
     inkscape:current-layer="layer1"
     showgrid="false"
     inkscape:window-width="1920"
     inkscape:window-height="982"
     inkscape:window-x="10"
     inkscape:window-y="0"
     inkscape:window-maximized="0"
     fit-margin-top="0"
     fit-margin-left="0"
     fit-margin-right="0"
     fit-margin-bottom="0" />
  <metadata
     id="metadata5">
    <rdf:RDF>
      <cc:Work
         rdf:about="">
        <dc:format>image/svg+xml</dc:format>
        <dc:type
           rdf:resource="http://purl.org/dc/dcmitype/StillImage" />
        <dc:title></dc:title>
      </cc:Work>
    </rdf:RDF>
  </metadata>
  <g
     inkscape:label="Capa 1"
     inkscape:groupmode="layer"
     id="layer1"
     transform="translate(37.9791,-54.959046)">
    <g
       id="g104"
       transform="matrix(0.078125,0,0,-0.08146149,-201.26035,511.14339)"
       style="fill:#b60000;fill-opacity:1;stroke:none">
      <path
         id="path90"
         d="m 2097,5593 c -4,-3 -7,-521 -7,-1150 V 3300 h 130 130 v 1150 1150 h -123 c -68,0 -127,-3 -130,-7 z"
         inkscape:connector-curvature="0"
         style="fill:#b60000;fill-opacity:1" />
      <path
         id="path92"
         d="m 2470,5470 v -130 l 1553,2 1552,3 3,128 3,127 H 4025 2470 Z"
         inkscape:connector-curvature="0"
         style="fill:#b60000;fill-opacity:1" />
      <path
         id="path94"
         d="m 5677,5593 c -4,-3 -7,-521 -7,-1150 V 3300 h 130 130 v 1150 1150 h -123 c -68,0 -127,-3 -130,-7 z"
         inkscape:connector-curvature="0"
         style="fill:#b60000;fill-opacity:1" />
      <path
         id="path96"
         d="m 4037,5203 c -4,-3 -7,-327 -7,-720 v -713 h 144 c 79,0 151,-2 158,-5 10,-4 62,52 152,160 l 138,165 h 56 57 l 165,-165 165,-165 h 152 153 v 595 596 l -152,-3 -153,-3 -5,-363 -5,-362 -85,85 -85,85 h -187 -188 l -82,-101 -83,-100 -3,510 -2,511 h -148 c -82,0 -152,-3 -155,-7 z"
         inkscape:connector-curvature="0"
         style="fill:#b60000;fill-opacity:1" />
      <path
         id="path98"
         d="m 3687,4933 c -4,-3 -7,-120 -7,-260 v -253 h -305 -305 v -140 -140 h 305 305 v -190 -190 h 130 130 v 590 590 h -123 c -68,0 -127,-3 -130,-7 z"
         inkscape:connector-curvature="0"
         style="fill:#b60000;fill-opacity:1" />
      <path
         id="path100"
         d="m 2760,4305 v -545 h 405 405 v 130 130 h -275 -275 v 245 245 l 268,2 267,3 3,168 2,167 h -400 -400 z"
         inkscape:connector-curvature="0"
         style="fill:#b60000;fill-opacity:1" />
      <path
         id="path102"
         d="m 2470,3430 v -130 l 1553,2 1552,3 3,128 3,127 H 4025 2470 Z"
         inkscape:connector-curvature="0"
         style="fill:#b60000;fill-opacity:1" />
    </g>
  </g>
</svg>
